<svg xmlns="http://www.w3.org/2000/svg" viewBox="0 0 91.03 46.93"><defs><style>.cls-1{fill:#2a3a42;}.cls-2{fill:#1a85c5;}.cls-3{fill:#1b2125;opacity:0.3;}</style></defs><title>Asset 2</title><g id="Layer_2" data-name="Layer 2"><g id="Tree_Leaf" data-name="Tree Leaf"><path class="cls-1" d="M73.73,16.32c-3.48,1.91-5.36,5-6.27,9,5.65-3,11.19-5.79,16.54-8.89,2.75-1.6,3.62-4.59,4.23-7.73-.4.16-.65.22-.87.34C82.81,11.48,78.24,13.85,73.73,16.32Z"/><path class="cls-1" d="M67.41,26.63a1.2,1.2,0,0,0-.56.5c-.6,1.78-1.16,3.56-1.77,5.45a2.5,2.5,0,0,0,.41-.11c4.14-2.19,8.3-4.35,12.42-6.58,2.85-1.54,4-4.25,4.88-7.35l-.45.2Z"/><path class="cls-1" d="M18.35,16.33c-4.52-2.48-9.09-4.85-13.63-7.26-.22-.11-.47-.18-.88-.34.62,3.14,1.48,6.14,4.24,7.73,5.35,3.1,10.88,5.88,16.54,8.89C23.71,21.33,21.82,18.23,18.35,16.33Z"/><path class="cls-1" d="M24.67,26.64,9.73,18.74l-.44-.2c.84,3.11,2,5.81,4.88,7.35,4.12,2.23,8.28,4.4,12.42,6.58a2,2,0,0,0,.41.11c-.61-1.89-1.17-3.67-1.77-5.44A1.15,1.15,0,0,0,24.67,26.64Z"/><path class="cls-1" d="M90.63,0,54.85,17.4l5.59,3.09v16l-14,8-14-8v-16l5.1-3L.45,0,.52.07.39,0A3.69,3.69,0,0,0,.47,3.44,9.53,9.53,0,0,0,5,7.91l13.58,7.17a15,15,0,0,1,6.8,8.12c1.74,5.09,3.14,9.63,4.71,14.57h0l16.25,9.15,16.36-9.64a.36.36,0,0,1,0-.11c-.06,0,0,.14,0,0C64,32,64.81,27.49,66.37,22.55a12.25,12.25,0,0,1,6.16-7.48L86.08,7.91a9.57,9.57,0,0,0,4.48-4.47A3.7,3.7,0,0,0,90.63,0Z"/><polygon class="cls-2" points="46.66 17.85 36.75 23.52 36.75 34.85 45.91 40.09 46.57 40.47 52.44 37.21 56.57 34.85 56.57 23.58 56.57 23.52 46.66 17.85"/><polygon class="cls-3" points="46.63 27.95 46.63 40.43 52.44 37.21 56.57 34.85 56.57 23.58 46.63 27.95"/></g></g></svg>